<svg width="347" height="41" viewBox="0 0 347 41" fill="none" xmlns="http://www.w3.org/2000/svg">
<path d="M29.634 13.765C28.68 11.9277 27.355 10.5497 25.659 9.631C23.963 8.677 22.002 8.2 19.776 8.2C17.338 8.2 15.165 8.74766 13.257 9.843C11.349 10.9383 9.84733 12.493 8.752 14.507C7.692 16.521 7.162 18.853 7.162 21.503C7.162 24.153 7.692 26.5027 8.752 28.552C9.84733 30.566 11.349 32.1207 13.257 33.216C15.165 34.3113 17.338 34.859 19.776 34.859C23.062 34.859 25.7297 33.9403 27.779 32.103C29.8283 30.2657 31.0827 27.7747 31.542 24.63H17.709V19.807H38.008V24.524C37.6193 27.386 36.5947 30.0183 34.934 32.421C33.3087 34.8237 31.171 36.7493 28.521 38.198C25.9063 39.6113 22.9913 40.318 19.776 40.318C16.3133 40.318 13.151 39.523 10.289 37.933C7.427 36.3077 5.148 34.064 3.452 31.202C1.79133 28.34 0.960999 25.107 0.960999 21.503C0.960999 17.899 1.79133 14.666 3.452 11.804C5.148 8.942 7.427 6.716 10.289 5.126C13.1863 3.50066 16.3487 2.688 19.776 2.688C23.698 2.688 27.1783 3.65966 30.217 5.603C33.291 7.511 35.517 10.2317 36.895 13.765H29.634Z" fill="black"/>
<path d="M50.0092 15.037C50.8925 13.553 52.0585 12.4047 53.5072 11.592C54.9912 10.744 56.7402 10.32 58.7542 10.32V16.574H57.2172C54.8499 16.574 53.0479 17.1747 51.8112 18.376C50.6099 19.5773 50.0092 21.662 50.0092 24.63V40H43.9672V10.797H50.0092V15.037Z" fill="black"/>
<path d="M62.294 25.266C62.294 22.3333 62.8947 19.7363 64.096 17.475C65.3327 15.2137 66.9933 13.4647 69.078 12.228C71.198 10.956 73.53 10.32 76.074 10.32C78.3707 10.32 80.367 10.7793 82.063 11.698C83.7943 12.5813 85.1723 13.6943 86.197 15.037V10.797H92.292V40H86.197V35.654C85.1723 37.032 83.7767 38.1803 82.01 39.099C80.2433 40.0177 78.2293 40.477 75.968 40.477C73.4593 40.477 71.1627 39.841 69.078 38.569C66.9933 37.2617 65.3327 35.4597 64.096 33.163C62.8947 30.831 62.294 28.1987 62.294 25.266ZM86.197 25.372C86.197 23.358 85.773 21.609 84.925 20.125C84.1123 18.641 83.0347 17.5103 81.692 16.733C80.3493 15.9557 78.9007 15.567 77.346 15.567C75.7913 15.567 74.3427 15.9557 73 16.733C71.6573 17.475 70.562 18.588 69.714 20.072C68.9013 21.5207 68.495 23.252 68.495 25.266C68.495 27.28 68.9013 29.0467 69.714 30.566C70.562 32.0853 71.6573 33.2513 73 34.064C74.378 34.8413 75.8267 35.23 77.346 35.23C78.9007 35.23 80.3493 34.8413 81.692 34.064C83.0347 33.2867 84.1123 32.156 84.925 30.672C85.773 29.1527 86.197 27.386 86.197 25.372Z" fill="black"/>
<path d="M114.962 10.32C117.259 10.32 119.308 10.797 121.11 11.751C122.947 12.705 124.378 14.1183 125.403 15.991C126.428 17.8637 126.94 20.125 126.94 22.775V40H120.951V23.676C120.951 21.0613 120.297 19.065 118.99 17.687C117.683 16.2737 115.898 15.567 113.637 15.567C111.376 15.567 109.574 16.2737 108.231 17.687C106.924 19.065 106.27 21.0613 106.27 23.676V40H100.228V10.797H106.27V14.136C107.259 12.9347 108.514 11.9983 110.033 11.327C111.588 10.6557 113.231 10.32 114.962 10.32Z" fill="black"/>
<path d="M132.633 25.266C132.633 22.3333 133.234 19.7363 134.435 17.475C135.672 15.2137 137.332 13.4647 139.417 12.228C141.537 10.956 143.887 10.32 146.466 10.32C148.374 10.32 150.247 10.744 152.084 11.592C153.957 12.4047 155.441 13.5 156.536 14.878V0.779999H162.631V40H156.536V35.601C155.547 37.0143 154.169 38.1803 152.402 39.099C150.671 40.0177 148.674 40.477 146.413 40.477C143.869 40.477 141.537 39.841 139.417 38.569C137.332 37.2617 135.672 35.4597 134.435 33.163C133.234 30.831 132.633 28.1987 132.633 25.266ZM156.536 25.372C156.536 23.358 156.112 21.609 155.264 20.125C154.451 18.641 153.374 17.5103 152.031 16.733C150.688 15.9557 149.24 15.567 147.685 15.567C146.13 15.567 144.682 15.9557 143.339 16.733C141.996 17.475 140.901 18.588 140.053 20.072C139.24 21.5207 138.834 23.252 138.834 25.266C138.834 27.28 139.24 29.0467 140.053 30.566C140.901 32.0853 141.996 33.2513 143.339 34.064C144.717 34.8413 146.166 35.23 147.685 35.23C149.24 35.23 150.688 34.8413 152.031 34.064C153.374 33.2867 154.451 32.156 155.264 30.672C156.112 29.1527 156.536 27.386 156.536 25.372Z" fill="black"/>
<path d="M192.774 32.474H177.351L174.701 40H168.394L181.591 3.112H188.587L201.784 40H195.424L192.774 32.474ZM191.078 27.545L185.089 10.426L179.047 27.545H191.078Z" fill="#B28267"/>
<path d="M242.873 10.32C245.17 10.32 247.219 10.797 249.021 11.751C250.858 12.705 252.289 14.1183 253.314 15.991C254.374 17.8637 254.904 20.125 254.904 22.775V40H248.915V23.676C248.915 21.0613 248.261 19.065 246.954 17.687C245.647 16.2737 243.862 15.567 241.601 15.567C239.34 15.567 237.538 16.2737 236.195 17.687C234.888 19.065 234.234 21.0613 234.234 23.676V40H228.245V23.676C228.245 21.0613 227.591 19.065 226.284 17.687C224.977 16.2737 223.192 15.567 220.931 15.567C218.67 15.567 216.868 16.2737 215.525 17.687C214.218 19.065 213.564 21.0613 213.564 23.676V40H207.522V10.797H213.564V14.136C214.553 12.9347 215.808 11.9983 217.327 11.327C218.846 10.6557 220.472 10.32 222.203 10.32C224.535 10.32 226.62 10.8147 228.457 11.804C230.294 12.7933 231.708 14.2243 232.697 16.097C233.58 14.3303 234.958 12.9347 236.831 11.91C238.704 10.85 240.718 10.32 242.873 10.32Z" fill="#B28267"/>
<path d="M268.634 15.143C269.659 13.7297 271.055 12.5813 272.821 11.698C274.623 10.7793 276.62 10.32 278.81 10.32C281.39 10.32 283.722 10.9383 285.806 12.175C287.891 13.4117 289.534 15.1783 290.735 17.475C291.937 19.7363 292.537 22.3333 292.537 25.266C292.537 28.1987 291.937 30.831 290.735 33.163C289.534 35.4597 287.873 37.2617 285.753 38.569C283.669 39.841 281.354 40.477 278.81 40.477C276.549 40.477 274.535 40.0353 272.768 39.152C271.037 38.2687 269.659 37.138 268.634 35.76V40H262.592V0.779999H268.634V15.143ZM286.389 25.266C286.389 23.252 285.965 21.5207 285.117 20.072C284.305 18.588 283.209 17.475 281.831 16.733C280.489 15.9557 279.04 15.567 277.485 15.567C275.966 15.567 274.517 15.9557 273.139 16.733C271.797 17.5103 270.701 18.641 269.853 20.125C269.041 21.609 268.634 23.358 268.634 25.372C268.634 27.386 269.041 29.1527 269.853 30.672C270.701 32.156 271.797 33.2867 273.139 34.064C274.517 34.8413 275.966 35.23 277.485 35.23C279.04 35.23 280.489 34.8413 281.831 34.064C283.209 33.2513 284.305 32.0853 285.117 30.566C285.965 29.0467 286.389 27.28 286.389 25.266Z" fill="#B28267"/>
<path d="M325.277 24.683C325.277 25.7783 325.206 26.7677 325.065 27.651H302.752C302.929 29.983 303.794 31.8557 305.349 33.269C306.904 34.6823 308.812 35.389 311.073 35.389C314.324 35.389 316.62 34.0287 317.963 31.308H324.482C323.599 33.9933 321.991 36.2017 319.659 37.933C317.362 39.629 314.5 40.477 311.073 40.477C308.282 40.477 305.773 39.8587 303.547 38.622C301.356 37.35 299.625 35.5833 298.353 33.322C297.116 31.0253 296.498 28.3753 296.498 25.372C296.498 22.3687 297.099 19.7363 298.3 17.475C299.537 15.1783 301.25 13.4117 303.441 12.175C305.667 10.9383 308.211 10.32 311.073 10.32C313.829 10.32 316.285 10.9207 318.44 12.122C320.595 13.3233 322.274 15.0193 323.475 17.21C324.676 19.3653 325.277 21.8563 325.277 24.683ZM318.97 22.775C318.935 20.549 318.14 18.7647 316.585 17.422C315.03 16.0793 313.105 15.408 310.808 15.408C308.723 15.408 306.939 16.0793 305.455 17.422C303.971 18.7293 303.088 20.5137 302.805 22.775H318.97Z" fill="#B28267"/>
<path d="M337.265 15.037C338.148 13.553 339.314 12.4047 340.763 11.592C342.247 10.744 343.996 10.32 346.01 10.32V16.574H344.473C342.106 16.574 340.304 17.1747 339.067 18.376C337.866 19.5773 337.265 21.662 337.265 24.63V40H331.223V10.797H337.265V15.037Z" fill="#B28267"/>
</svg>
